<?xml version="1.0" standalone="no"?>
<!DOCTYPE svg PUBLIC "-//W3C//DTD SVG 20010904//EN"
 "http://www.w3.org/TR/2001/REC-SVG-20010904/DTD/svg10.dtd">
<svg version="1.0" xmlns="http://www.w3.org/2000/svg"
 width="700.000000pt" height="700.000000pt" viewBox="0 0 700.000000 700.000000"
 preserveAspectRatio="xMidYMid meet">
<metadata>
Created by potrace 1.14, written by Peter Selinger 2001-2017
</metadata>
<g transform="translate(0.000000,700.000000) scale(0.100000,-0.100000)"
fill="#000000" stroke="none">
<path d="M1985 6126 l-1510 -873 0 -1753 0 -1753 1513 -874 1513 -873 1512
874 1512 873 0 1753 0 1753 -1505 870 c-828 478 -1509 871 -1515 872 -5 2
-689 -389 -1520 -869z m259 -1213 c11 -38 279 -1417 341 -1758 66 -361 74
-399 80 -393 2 2 78 327 168 723 91 396 203 883 248 1083 l83 362 343 0 c317
0 342 -1 347 -17 13 -46 334 -1441 406 -1763 82 -373 90 -402 96 -385 2 6 37
192 78 415 41 223 136 704 210 1069 75 365 136 668 136 672 0 5 133 9 295 9
165 0 295 -4 295 -9 0 -9 -647 -2802 -656 -2833 -5 -17 -31 -18 -360 -18 -195
0 -354 2 -354 4 0 6 -475 2067 -491 2131 -10 40 -14 45 -20 30 -9 -21 -60
-241 -340 -1457 l-163 -708 -357 0 -356 0 -6 28 c-3 15 -148 654 -321 1420
-174 767 -316 1398 -316 1403 0 5 124 9 304 9 282 0 305 -1 310 -17z"/>
</g>
</svg>
